<svg xmlns="http://www.w3.org/2000/svg" viewBox="0 0 512 512" role="img" aria-label="S logo">
  <rect width="512" height="512" fill="#000"/>
  <path fill="#fff" fill-rule="evenodd" d="M21.00 256.00a235.00 235.00 0 1 0 470.00 0a235.00 235.00 0 1 0 -470.00 0ZM247.39 66.51C226.14 67.77 203.15 71.90 182.40 80.51C161.65 89.13 139.93 101.26 122.89 118.20C105.85 135.14 89.31 163.79 80.14 182.16C70.96 200.53 69.53 209.66 67.85 228.40C66.17 247.13 67.81 277.23 70.06 294.56C72.31 311.88 75.34 319.05 81.36 332.35C87.38 345.65 94.93 369.70 106.18 374.37C117.42 379.05 130.17 366.95 148.81 360.42C167.45 353.90 195.50 343.52 218.02 335.23C240.54 326.93 271.45 317.73 283.94 310.66C296.43 303.58 294.59 297.79 292.95 292.77C291.30 287.74 287.62 281.30 274.09 280.51C260.55 279.72 229.25 293.92 211.75 288.04C194.26 282.15 174.75 262.40 169.14 245.20C163.53 228.00 167.95 200.32 178.10 184.84C188.25 169.36 209.05 162.13 230.04 152.30C251.03 142.46 284.24 132.89 304.02 125.81C323.80 118.73 337.55 113.91 348.72 109.81C359.88 105.71 369.86 104.47 371.04 101.22C372.21 97.98 365.98 95.03 355.79 90.33C345.59 85.62 327.95 76.95 309.88 72.98C291.81 69.01 268.64 65.26 247.39 66.51ZM264.61 445.49C285.86 444.23 308.85 440.10 329.60 431.49C350.35 422.87 372.07 410.74 389.11 393.80C406.15 376.86 422.69 348.21 431.86 329.84C441.04 311.47 442.47 302.34 444.15 283.60C445.83 264.87 444.19 234.77 441.94 217.44C439.69 200.12 436.66 192.95 430.64 179.65C424.62 166.35 417.07 142.30 405.82 137.63C394.58 132.95 381.83 145.05 363.19 151.58C344.55 158.10 316.50 168.48 293.98 176.77C271.46 185.07 240.55 194.27 228.06 201.34C215.57 208.42 217.41 214.21 219.05 219.23C220.70 224.26 224.38 230.70 237.91 231.49C251.45 232.28 282.75 218.08 300.25 223.96C317.74 229.85 337.25 249.60 342.86 266.80C348.47 284.00 344.05 311.68 333.90 327.16C323.75 342.64 302.95 349.87 281.96 359.70C260.97 369.54 227.76 379.11 207.98 386.19C188.20 393.27 174.45 398.09 163.28 402.19C152.12 406.29 142.14 407.53 140.96 410.78C139.79 414.02 146.02 416.97 156.21 421.67C166.41 426.38 184.05 435.05 202.12 439.02C220.19 442.99 243.36 446.74 264.61 445.49Z"/>
</svg>
